<mxfile host="app.diagrams.net" agent="Mozilla/5.0 (Macintosh; Intel Mac OS X 10_15_7) AppleWebKit/605.1.15 (KHTML, like Gecko) Version/18.2 Safari/605.1.15" version="26.0.14">
  <diagram name="Page-1" id="olP5XH2fdwFS9YLNRbOA">
    <mxGraphModel grid="1" page="1" gridSize="10" guides="1" tooltips="1" connect="1" arrows="1" fold="1" pageScale="1" pageWidth="827" pageHeight="1169" math="0" shadow="0">
      <root>
        <mxCell id="0" />
        <mxCell id="1" parent="0" />
        <mxCell id="LdNjaLd4k3nDaUt1j8qE-8" value="" style="whiteSpace=wrap;html=1;aspect=fixed;" vertex="1" parent="1">
          <mxGeometry x="220" y="100" width="540" height="540" as="geometry" />
        </mxCell>
        <mxCell id="LdNjaLd4k3nDaUt1j8qE-1" value="Secretaria" style="shape=umlActor;verticalLabelPosition=bottom;verticalAlign=top;html=1;" vertex="1" parent="1">
          <mxGeometry x="780" y="345" width="30" height="60" as="geometry" />
        </mxCell>
        <mxCell id="LdNjaLd4k3nDaUt1j8qE-4" value="Aluno" style="shape=umlActor;verticalLabelPosition=bottom;verticalAlign=top;html=1;" vertex="1" parent="1">
          <mxGeometry x="110" y="200" width="30" height="60" as="geometry" />
        </mxCell>
        <mxCell id="LdNjaLd4k3nDaUt1j8qE-5" value="Professor" style="shape=umlActor;verticalLabelPosition=bottom;verticalAlign=top;html=1;" vertex="1" parent="1">
          <mxGeometry x="100" y="345" width="30" height="60" as="geometry" />
        </mxCell>
        <mxCell id="LdNjaLd4k3nDaUt1j8qE-7" value="Sistema de cobrança" style="shape=umlActor;verticalLabelPosition=bottom;verticalAlign=top;html=1;" vertex="1" parent="1">
          <mxGeometry x="100" y="525" width="30" height="60" as="geometry" />
        </mxCell>
        <mxCell id="LdNjaLd4k3nDaUt1j8qE-11" value="Processar cobrança de matrícula" style="ellipse;whiteSpace=wrap;html=1;" vertex="1" parent="1">
          <mxGeometry x="267.5" y="520" width="105" height="50" as="geometry" />
        </mxCell>
        <mxCell id="LdNjaLd4k3nDaUt1j8qE-12" value="Notificar aluno" style="ellipse;whiteSpace=wrap;html=1;" vertex="1" parent="1">
          <mxGeometry x="260" y="585" width="120" height="45" as="geometry" />
        </mxCell>
        <mxCell id="LdNjaLd4k3nDaUt1j8qE-13" value="login" style="ellipse;whiteSpace=wrap;html=1;" vertex="1" parent="1">
          <mxGeometry x="450" y="170" width="80" height="40" as="geometry" />
        </mxCell>
        <mxCell id="LdNjaLd4k3nDaUt1j8qE-14" value="Notificar matrícula para cobrança" style="ellipse;whiteSpace=wrap;html=1;" vertex="1" parent="1">
          <mxGeometry x="630" y="570" width="110" height="55" as="geometry" />
        </mxCell>
        <mxCell id="LdNjaLd4k3nDaUt1j8qE-21" value="cancelar disciplina" style="ellipse;whiteSpace=wrap;html=1;" vertex="1" parent="1">
          <mxGeometry x="530" y="250" width="80" height="40" as="geometry" />
        </mxCell>
        <mxCell id="LdNjaLd4k3nDaUt1j8qE-22" value="cancelar matrícula de aluno" style="ellipse;whiteSpace=wrap;html=1;" vertex="1" parent="1">
          <mxGeometry x="530" y="300" width="90" height="45" as="geometry" />
        </mxCell>
        <mxCell id="LdNjaLd4k3nDaUt1j8qE-31" value="gerar currículo semestral" style="ellipse;whiteSpace=wrap;html=1;" vertex="1" parent="1">
          <mxGeometry x="525" y="355" width="100" height="50" as="geometry" />
        </mxCell>
        <mxCell id="LdNjaLd4k3nDaUt1j8qE-33" value="matricular-se em uma disciplina" style="ellipse;whiteSpace=wrap;html=1;" vertex="1" parent="1">
          <mxGeometry x="260" y="375" width="100" height="50" as="geometry" />
        </mxCell>
        <mxCell id="LdNjaLd4k3nDaUt1j8qE-35" value="&amp;lt;&amp;lt;extend&amp;gt;&amp;gt;" style="html=1;verticalAlign=bottom;labelBackgroundColor=none;endArrow=open;endFill=0;dashed=1;rounded=0;exitX=0;exitY=0.5;exitDx=0;exitDy=0;entryX=1;entryY=0.5;entryDx=0;entryDy=0;" edge="1" parent="1" source="LdNjaLd4k3nDaUt1j8qE-36" target="LdNjaLd4k3nDaUt1j8qE-33">
          <mxGeometry x="0.2294" y="-18" width="160" relative="1" as="geometry">
            <mxPoint x="350" y="232.5" as="sourcePoint" />
            <mxPoint x="470.00000000000637" y="227.5" as="targetPoint" />
            <mxPoint as="offset" />
          </mxGeometry>
        </mxCell>
        <mxCell id="LdNjaLd4k3nDaUt1j8qE-36" value="cancelar matrícula" style="ellipse;whiteSpace=wrap;html=1;" vertex="1" parent="1">
          <mxGeometry x="414" y="340" width="80" height="40" as="geometry" />
        </mxCell>
        <mxCell id="LdNjaLd4k3nDaUt1j8qE-37" value="consultar disciplina" style="ellipse;whiteSpace=wrap;html=1;" vertex="1" parent="1">
          <mxGeometry x="270" y="440" width="80" height="40" as="geometry" />
        </mxCell>
        <mxCell id="LdNjaLd4k3nDaUt1j8qE-39" value="consultar alunos" style="ellipse;whiteSpace=wrap;html=1;" vertex="1" parent="1">
          <mxGeometry x="414" y="440" width="80" height="40" as="geometry" />
        </mxCell>
        <mxCell id="LdNjaLd4k3nDaUt1j8qE-40" value="&amp;lt;&amp;lt;extend&amp;gt;&amp;gt;" style="html=1;verticalAlign=bottom;labelBackgroundColor=none;endArrow=open;endFill=0;dashed=1;rounded=0;exitX=0;exitY=0.5;exitDx=0;exitDy=0;entryX=1;entryY=0.5;entryDx=0;entryDy=0;" edge="1" parent="1" source="LdNjaLd4k3nDaUt1j8qE-39" target="LdNjaLd4k3nDaUt1j8qE-37">
          <mxGeometry x="-0.25" y="-10" width="160" relative="1" as="geometry">
            <mxPoint x="446.99999999999613" y="530" as="sourcePoint" />
            <mxPoint x="511" y="530" as="targetPoint" />
            <mxPoint as="offset" />
          </mxGeometry>
        </mxCell>
        <mxCell id="LdNjaLd4k3nDaUt1j8qE-41" value="&lt;font style=&quot;font-size: 16px;&quot;&gt;Enrollify - Sistema de Matrículas Universitário&lt;/font&gt;" style="text;html=1;align=center;verticalAlign=middle;whiteSpace=wrap;rounded=0;fontStyle=0;fontFamily=Courier New;" vertex="1" parent="1">
          <mxGeometry x="360" y="660" width="260" height="30" as="geometry" />
        </mxCell>
        <mxCell id="9j0UMj-KNkwCNBPyWPre-9" value="" style="endArrow=none;html=1;rounded=0;strokeColor=default;align=center;verticalAlign=middle;fontFamily=Helvetica;fontSize=11;fontColor=default;labelBackgroundColor=default;entryX=0;entryY=0.5;entryDx=0;entryDy=0;exitX=0.5;exitY=0.5;exitDx=0;exitDy=0;exitPerimeter=0;" edge="1" parent="1" source="LdNjaLd4k3nDaUt1j8qE-7" target="LdNjaLd4k3nDaUt1j8qE-11">
          <mxGeometry width="50" height="50" relative="1" as="geometry">
            <mxPoint x="130" y="580" as="sourcePoint" />
            <mxPoint x="180" y="530" as="targetPoint" />
          </mxGeometry>
        </mxCell>
        <mxCell id="9j0UMj-KNkwCNBPyWPre-11" value="" style="endArrow=none;html=1;rounded=0;strokeColor=default;align=center;verticalAlign=middle;fontFamily=Helvetica;fontSize=11;fontColor=default;labelBackgroundColor=default;entryX=0;entryY=0.5;entryDx=0;entryDy=0;exitX=0.5;exitY=0.5;exitDx=0;exitDy=0;exitPerimeter=0;" edge="1" parent="1" source="LdNjaLd4k3nDaUt1j8qE-7" target="LdNjaLd4k3nDaUt1j8qE-12">
          <mxGeometry width="50" height="50" relative="1" as="geometry">
            <mxPoint x="160" y="640" as="sourcePoint" />
            <mxPoint x="210" y="590" as="targetPoint" />
          </mxGeometry>
        </mxCell>
        <mxCell id="9j0UMj-KNkwCNBPyWPre-12" value="" style="endArrow=none;html=1;rounded=0;strokeColor=default;align=center;verticalAlign=middle;fontFamily=Helvetica;fontSize=11;fontColor=default;labelBackgroundColor=default;entryX=0;entryY=0.5;entryDx=0;entryDy=0;exitX=0.5;exitY=0.5;exitDx=0;exitDy=0;exitPerimeter=0;" edge="1" parent="1" source="LdNjaLd4k3nDaUt1j8qE-5" target="LdNjaLd4k3nDaUt1j8qE-37">
          <mxGeometry width="50" height="50" relative="1" as="geometry">
            <mxPoint x="160" y="460" as="sourcePoint" />
            <mxPoint x="210" y="410" as="targetPoint" />
          </mxGeometry>
        </mxCell>
        <mxCell id="9j0UMj-KNkwCNBPyWPre-13" value="" style="endArrow=none;html=1;rounded=0;strokeColor=default;align=center;verticalAlign=middle;fontFamily=Helvetica;fontSize=11;fontColor=default;labelBackgroundColor=default;entryX=0;entryY=0.5;entryDx=0;entryDy=0;exitX=0.5;exitY=0.5;exitDx=0;exitDy=0;exitPerimeter=0;" edge="1" parent="1" source="LdNjaLd4k3nDaUt1j8qE-5" target="LdNjaLd4k3nDaUt1j8qE-13">
          <mxGeometry width="50" height="50" relative="1" as="geometry">
            <mxPoint x="150" y="365" as="sourcePoint" />
            <mxPoint x="200" y="315" as="targetPoint" />
          </mxGeometry>
        </mxCell>
        <mxCell id="9j0UMj-KNkwCNBPyWPre-14" value="" style="endArrow=none;html=1;rounded=0;strokeColor=default;align=center;verticalAlign=middle;fontFamily=Helvetica;fontSize=11;fontColor=default;labelBackgroundColor=default;exitX=0.5;exitY=0.5;exitDx=0;exitDy=0;exitPerimeter=0;entryX=0;entryY=0.5;entryDx=0;entryDy=0;" edge="1" parent="1" source="LdNjaLd4k3nDaUt1j8qE-4" target="LdNjaLd4k3nDaUt1j8qE-33">
          <mxGeometry width="50" height="50" relative="1" as="geometry">
            <mxPoint x="120" y="345" as="sourcePoint" />
            <mxPoint x="170" y="295" as="targetPoint" />
          </mxGeometry>
        </mxCell>
        <mxCell id="9j0UMj-KNkwCNBPyWPre-15" value="" style="endArrow=none;html=1;rounded=0;strokeColor=default;align=center;verticalAlign=middle;fontFamily=Helvetica;fontSize=11;fontColor=default;labelBackgroundColor=default;exitX=1;exitY=0.5;exitDx=0;exitDy=0;entryX=0.5;entryY=0.5;entryDx=0;entryDy=0;entryPerimeter=0;" edge="1" parent="1" source="LdNjaLd4k3nDaUt1j8qE-22" target="LdNjaLd4k3nDaUt1j8qE-1">
          <mxGeometry width="50" height="50" relative="1" as="geometry">
            <mxPoint x="780" y="310" as="sourcePoint" />
            <mxPoint x="830" y="260" as="targetPoint" />
          </mxGeometry>
        </mxCell>
        <mxCell id="9j0UMj-KNkwCNBPyWPre-16" value="" style="endArrow=none;html=1;rounded=0;strokeColor=default;align=center;verticalAlign=middle;fontFamily=Helvetica;fontSize=11;fontColor=default;labelBackgroundColor=default;entryX=0.5;entryY=0.5;entryDx=0;entryDy=0;entryPerimeter=0;exitX=1;exitY=0.5;exitDx=0;exitDy=0;" edge="1" parent="1" source="LdNjaLd4k3nDaUt1j8qE-21" target="LdNjaLd4k3nDaUt1j8qE-1">
          <mxGeometry width="50" height="50" relative="1" as="geometry">
            <mxPoint x="670" y="258" as="sourcePoint" />
            <mxPoint x="795" y="440" as="targetPoint" />
          </mxGeometry>
        </mxCell>
        <mxCell id="9j0UMj-KNkwCNBPyWPre-17" value="" style="endArrow=none;html=1;rounded=0;strokeColor=default;align=center;verticalAlign=middle;fontFamily=Helvetica;fontSize=11;fontColor=default;labelBackgroundColor=default;entryX=1;entryY=0.5;entryDx=0;entryDy=0;exitX=0.5;exitY=0.5;exitDx=0;exitDy=0;exitPerimeter=0;" edge="1" parent="1" source="LdNjaLd4k3nDaUt1j8qE-1" target="LdNjaLd4k3nDaUt1j8qE-31">
          <mxGeometry width="50" height="50" relative="1" as="geometry">
            <mxPoint x="630" y="460" as="sourcePoint" />
            <mxPoint x="680" y="410" as="targetPoint" />
          </mxGeometry>
        </mxCell>
        <mxCell id="LdNjaLd4k3nDaUt1j8qE-47" value="" style="endArrow=none;html=1;rounded=0;strokeColor=default;align=center;verticalAlign=middle;fontFamily=Helvetica;fontSize=11;fontColor=default;labelBackgroundColor=default;exitX=0.544;exitY=0.307;exitDx=0;exitDy=0;entryX=0;entryY=0.5;entryDx=0;entryDy=0;exitPerimeter=0;" edge="1" parent="1" source="LdNjaLd4k3nDaUt1j8qE-4" target="LdNjaLd4k3nDaUt1j8qE-13">
          <mxGeometry width="50" height="50" relative="1" as="geometry">
            <mxPoint x="780" y="454" as="sourcePoint" />
            <mxPoint x="905" y="636" as="targetPoint" />
          </mxGeometry>
        </mxCell>
        <mxCell id="9j0UMj-KNkwCNBPyWPre-19" value="" style="endArrow=none;html=1;rounded=0;strokeColor=default;align=center;verticalAlign=middle;fontFamily=Helvetica;fontSize=11;fontColor=default;labelBackgroundColor=default;exitX=1;exitY=0.5;exitDx=0;exitDy=0;" edge="1" parent="1" source="LdNjaLd4k3nDaUt1j8qE-13">
          <mxGeometry width="50" height="50" relative="1" as="geometry">
            <mxPoint x="460" y="230" as="sourcePoint" />
            <mxPoint x="790" y="370" as="targetPoint" />
          </mxGeometry>
        </mxCell>
        <mxCell id="9j0UMj-KNkwCNBPyWPre-20" style="edgeStyle=none;shape=connector;rounded=0;orthogonalLoop=1;jettySize=auto;html=1;exitX=1;exitY=0;exitDx=0;exitDy=0;strokeColor=default;align=center;verticalAlign=middle;fontFamily=Helvetica;fontSize=11;fontColor=default;labelBackgroundColor=default;endArrow=classic;" edge="1" parent="1" source="LdNjaLd4k3nDaUt1j8qE-8" target="LdNjaLd4k3nDaUt1j8qE-8">
          <mxGeometry relative="1" as="geometry" />
        </mxCell>
      </root>
    </mxGraphModel>
  </diagram>
</mxfile>
